# xmcd CD database file
#
# Track frame offsets:
#	150
#	13324
#	30218
#	47195
#	61646
#	78398
#	95396
#	113672
#	129806
#	143037
#
# Disc length: 2079 seconds
#
# Revision: 0
# Processed by: cddbd v1.5.2PL0 Copyright (c) Steve Scherf et al.
# Submitted via: CDex 1.70beta2
#
DISCID=70081d0a
DTITLE=Felix Morales - Orquesta Capri
DYEAR=1900
DGENRE=Salsa
TTITLE0=Lo que Soy
TTITLE1=Vagabundo
TTITLE2=No Me Mires
TTITLE3=Tapame Contigo
TTITLE4=Sigue Ella Boba
TTITLE5=Bomboncito
TTITLE6=Virgencita Ayudame
TTITLE7=Prefiero El Son
TTITLE8=Mi Son Montuno
TTITLE9=Guaganco A todos Los Barrios
EXTD=
EXTT0=
EXTT1=
EXTT2=
EXTT3=
EXTT4=
EXTT5=
EXTT6=
EXTT7=
EXTT8=
EXTT9=
PLAYORDER=
